<svg width="48" height="48" viewBox="0 0 48 48" fill="none" xmlns="http://www.w3.org/2000/svg">
<path d="M24.0234 4C13.0114 4 4.04697 12.9567 4.04297 23.9688C4.04097 27.4887 4.96294 30.9251 6.71094 33.9531L4 44L14.4648 41.5273C17.3828 43.1193 20.6677 43.955 24.0117 43.957H24.0195C35.0295 43.957 43.9901 34.9983 43.9961 23.9883C44.0001 18.6503 41.9243 13.6315 38.1523 9.85547C34.3803 6.08147 29.3674 4.002 24.0234 4ZM24.0195 8C28.2915 8.002 32.3062 9.66759 35.3242 12.6836C38.3422 15.7036 40.0001 19.7164 39.9961 23.9844C39.9921 32.7924 32.8276 39.957 24.0156 39.957C21.3496 39.955 18.7088 39.2856 16.3828 38.0156L15.0352 37.2812L13.5469 37.6328L9.60938 38.5625L10.5703 34.9922L11.0039 33.3906L10.1758 31.9531C8.77978 29.5371 8.04097 26.7747 8.04297 23.9688C8.04697 15.1648 15.2135 8 24.0195 8ZM16.9531 14.75C16.6191 14.75 16.0791 14.875 15.6211 15.375C15.1631 15.873 13.8711 17.0792 13.8711 19.5352C13.8711 21.9912 15.6602 24.3652 15.9102 24.6992C16.1582 25.0312 19.3635 30.2305 24.4375 32.2305C28.6535 33.8925 29.5098 33.5645 30.4258 33.4805C31.3418 33.3985 33.3809 32.2754 33.7969 31.1094C34.2129 29.9434 34.2138 28.9404 34.0898 28.7344C33.9658 28.5264 33.6328 28.4023 33.1328 28.1523C32.6348 27.9023 30.1807 26.6972 29.7227 26.5312C29.2647 26.3653 28.9297 26.2812 28.5977 26.7812C28.2657 27.2812 27.3115 28.4024 27.0195 28.7344C26.7275 29.0684 26.4375 29.1133 25.9375 28.8633C25.4375 28.6113 23.8299 28.0828 21.9219 26.3828C20.4379 25.0608 19.4365 23.4297 19.1445 22.9297C18.8545 22.4317 19.1172 22.1582 19.3672 21.9102C19.5912 21.6862 19.8633 21.3272 20.1133 21.0352C20.3613 20.7432 20.4473 20.5351 20.6133 20.2031C20.7793 19.8711 20.6943 19.5781 20.5703 19.3281C20.4463 19.0781 19.4753 16.613 19.0312 15.625C18.6572 14.795 18.2623 14.7757 17.9062 14.7617C17.6163 14.7497 17.2851 14.75 16.9531 14.75Z" fill="black"/>
</svg>
