<svg xmlns="http://www.w3.org/2000/svg" xmlns:xlink="http://www.w3.org/1999/xlink" width="200" zoomAndPan="magnify" viewBox="0 0 150 149.999998" height="200" preserveAspectRatio="xMidYMid meet" version="1.0"><defs><clipPath id="13ae363ef8"><path d="M 15 68 L 135 68 L 135 138.464844 L 15 138.464844 Z M 15 68 " clip-rule="nonzero"/></clipPath><clipPath id="32248ab952"><path d="M 69 11.714844 L 84 11.714844 L 84 54 L 69 54 Z M 69 11.714844 " clip-rule="nonzero"/></clipPath></defs><g clip-path="url(#13ae363ef8)"><path fill="#7f5283" d="M 84.128906 138.566406 C 64.449219 138.566406 48.191406 136.140625 33.675781 127.140625 C 28.878906 124.15625 24.691406 120.476562 21.117188 116.097656 C 13.101562 106.207031 14.023438 94.328125 22.808594 85.101562 C 29.953125 77.539062 39.144531 73.566406 49.023438 71.105469 C 53.75 69.914062 58.613281 68.457031 63.417969 68.457031 C 82.675781 68.457031 101.863281 69.78125 118.558594 80.941406 C 123.253906 84.109375 127.28125 87.976562 130.644531 92.542969 C 136.875 101.027344 136.253906 110.894531 129.835938 119.246094 C 123.0625 128.050781 113.578125 132.621094 103.183594 135.214844 C 96.027344 136.964844 88.632812 137.796875 84.128906 138.566406 Z M 46.6875 76.335938 C 49.40625 78.335938 51.84375 80.636719 54 83.238281 C 56.15625 85.84375 57.960938 88.667969 59.417969 91.71875 C 59.675781 92.691406 59.746094 93.675781 59.628906 94.671875 C 58.652344 94.582031 57.488281 94.820312 56.75 94.355469 C 51.558594 91.152344 46.488281 87.734375 41.351562 84.492188 C 34.746094 80.28125 34.746094 80.292969 28.683594 85.285156 C 28.039062 85.828125 27.363281 86.359375 26.769531 86.941406 C 17.960938 95.253906 17.390625 105.96875 25.289062 115.144531 C 29.398438 119.824219 34.296875 123.421875 39.988281 125.933594 C 59.695312 134.964844 80.113281 136.40625 101.03125 131.230469 C 109.867188 129.058594 118.070312 125.402344 124.542969 118.730469 C 129.625 113.433594 132.464844 107.132812 129.730469 100.023438 C 127.957031 95.660156 125.394531 91.832031 122.046875 88.53125 C 115.585938 82.003906 107.226562 78.507812 98.511719 75.953125 C 97.585938 75.671875 96.621094 75.554688 95.246094 75.277344 C 97.890625 79.25 100.226562 82.71875 102.417969 86.277344 C 102.75 87.230469 102.894531 88.210938 102.855469 89.21875 C 101.773438 89.140625 100.398438 89.46875 99.632812 88.925781 C 93.847656 84.875 87.929688 80.984375 82.554688 76.386719 C 79.226562 73.566406 75.914062 73.566406 71.714844 74.070312 C 72.386719 74.890625 72.796875 75.300781 73.113281 75.777344 C 75.753906 79.75 78.394531 83.722656 80.917969 87.839844 C 81.300781 88.476562 80.773438 89.695312 80.652344 90.636719 C 79.796875 90.550781 78.96875 90.34375 78.171875 90.011719 C 77.0625 89.324219 76.203125 88.238281 75.09375 87.535156 C 69.546875 83.988281 63.5625 80.996094 58.519531 76.839844 C 54.371094 73.421875 51.015625 74.800781 46.6875 76.386719 Z M 46.6875 76.335938 " fill-opacity="1" fill-rule="nonzero"/></g><g clip-path="url(#32248ab952)"><path fill="#7f5283" d="M 70.457031 11.789062 C 81.355469 16.503906 88.050781 30.894531 81.15625 38.667969 C 78.105469 42.082031 79.121094 46.015625 79.652344 49.945312 C 79.617188 51.273438 79.386719 52.566406 78.964844 53.828125 C 77.644531 53.496094 76.152344 53.496094 75.171875 52.753906 C 68.820312 47.949219 67.554688 43.101562 70.839844 35.792969 C 73.785156 29.292969 74.144531 22.910156 71.105469 16.34375 C 70.683594 14.855469 70.46875 13.335938 70.457031 11.789062 Z M 70.457031 11.789062 " fill-opacity="1" fill-rule="nonzero"/></g><path fill="#7f5283" d="M 96.265625 21.109375 C 104.546875 26.738281 106.394531 33.527344 102.140625 41.539062 C 100.042969 45.511719 100.148438 49.617188 100.820312 53.828125 C 101.097656 55.601562 101.824219 57.90625 99.632812 58.433594 C 98.3125 58.753906 96.449219 57.453125 95.167969 56.460938 C 94.066406 55.355469 93.101562 54.136719 92.277344 52.808594 C 88.3125 47.761719 87.640625 42.769531 91.257812 36.917969 C 93.226562 33.78125 93.902344 29.796875 95.023438 26.167969 C 95.472656 24.65625 95.789062 23.054688 96.265625 21.109375 Z M 96.265625 21.109375 " fill-opacity="1" fill-rule="nonzero"/><path fill="#7f5283" d="M 53.460938 22.050781 C 59.074219 24.699219 63.113281 30.761719 62.324219 36.042969 C 61.78125 38.761719 60.554688 41.117188 58.636719 43.113281 C 56.167969 45.761719 55.191406 48.332031 56.195312 51.894531 C 56.578125 53.21875 55.945312 54.804688 55.785156 56.289062 C 54.25 56.019531 52.777344 55.542969 51.375 54.859375 C 50.035156 53.828125 48.90625 52.605469 47.980469 51.191406 C 45.007812 47.140625 45.152344 44.453125 48.113281 40.425781 C 49.765625 38.371094 51.136719 36.136719 52.21875 33.726562 C 52.839844 31.566406 53.160156 29.359375 53.183594 27.109375 C 53.355469 25.453125 53.367188 23.835938 53.460938 22.050781 Z M 53.460938 22.050781 " fill-opacity="1" fill-rule="nonzero"/></svg>