<svg xmlns="http://www.w3.org/2000/svg" xmlns:xlink="http://www.w3.org/1999/xlink" width="200" zoomAndPan="magnify" viewBox="0 0 150 149.999998" height="200" preserveAspectRatio="xMidYMid meet" version="1.0"><defs><clipPath id="235d05921c"><path d="M 24 88 L 57 88 L 57 121.082031 L 24 121.082031 Z M 24 88 " clip-rule="nonzero"/></clipPath><clipPath id="648b5cb663"><path d="M 93 88 L 127 88 L 127 121.082031 L 93 121.082031 Z M 93 88 " clip-rule="nonzero"/></clipPath><clipPath id="31d74dfc45"><path d="M 10.222656 28.832031 L 104 28.832031 L 104 103 L 10.222656 103 Z M 10.222656 28.832031 " clip-rule="nonzero"/></clipPath><clipPath id="a74e5262cd"><path d="M 79 42 L 139.972656 42 L 139.972656 103 L 79 103 Z M 79 42 " clip-rule="nonzero"/></clipPath><clipPath id="ed79e4eb71"><path d="M 10.222656 42 L 71 42 L 71 52 L 10.222656 52 Z M 10.222656 42 " clip-rule="nonzero"/></clipPath><clipPath id="57c9d7163f"><path d="M 10.222656 56 L 67 56 L 67 66 L 10.222656 66 Z M 10.222656 56 " clip-rule="nonzero"/></clipPath><clipPath id="8a61387dd4"><path d="M 10.222656 70 L 62 70 L 62 80 L 10.222656 80 Z M 10.222656 70 " clip-rule="nonzero"/></clipPath></defs><g clip-path="url(#235d05921c)"><path fill="#7f5283" d="M 40.699219 121.019531 C 40.167969 121.019531 39.640625 120.992188 39.113281 120.941406 C 38.585938 120.890625 38.0625 120.8125 37.542969 120.710938 C 37.027344 120.605469 36.511719 120.476562 36.007812 120.324219 C 35.5 120.171875 35.003906 119.992188 34.511719 119.792969 C 34.023438 119.589844 33.546875 119.363281 33.078125 119.113281 C 32.613281 118.867188 32.160156 118.59375 31.71875 118.300781 C 31.277344 118.007812 30.855469 117.695312 30.445312 117.359375 C 30.035156 117.023438 29.644531 116.671875 29.269531 116.296875 C 28.894531 115.921875 28.539062 115.53125 28.203125 115.125 C 27.867188 114.714844 27.554688 114.292969 27.261719 113.855469 C 26.964844 113.414062 26.695312 112.960938 26.445312 112.496094 C 26.195312 112.03125 25.96875 111.554688 25.765625 111.066406 C 25.5625 110.578125 25.386719 110.082031 25.230469 109.578125 C 25.078125 109.070312 24.949219 108.558594 24.847656 108.042969 C 24.742188 107.523438 24.667969 107.003906 24.613281 106.476562 C 24.5625 105.953125 24.535156 105.425781 24.535156 104.898438 C 24.535156 104.367188 24.5625 103.84375 24.613281 103.316406 C 24.667969 102.792969 24.742188 102.269531 24.847656 101.75 C 24.949219 101.234375 25.078125 100.722656 25.230469 100.21875 C 25.386719 99.710938 25.5625 99.214844 25.765625 98.726562 C 25.96875 98.238281 26.195312 97.761719 26.445312 97.296875 C 26.695312 96.832031 26.964844 96.378906 27.261719 95.941406 C 27.554688 95.5 27.867188 95.078125 28.203125 94.667969 C 28.539062 94.261719 28.894531 93.871094 29.269531 93.496094 C 29.644531 93.125 30.035156 92.769531 30.445312 92.433594 C 30.855469 92.097656 31.277344 91.785156 31.71875 91.492188 C 32.160156 91.199219 32.613281 90.925781 33.078125 90.679688 C 33.546875 90.429688 34.023438 90.203125 34.511719 90.003906 C 35.003906 89.800781 35.5 89.621094 36.007812 89.46875 C 36.511719 89.316406 37.027344 89.1875 37.542969 89.085938 C 38.0625 88.980469 38.585938 88.90625 39.113281 88.851562 C 39.640625 88.800781 40.167969 88.773438 40.699219 88.773438 C 41.226562 88.773438 41.753906 88.800781 42.28125 88.851562 C 42.808594 88.90625 43.332031 88.980469 43.851562 89.085938 C 44.371094 89.1875 44.882812 89.316406 45.390625 89.46875 C 45.894531 89.621094 46.394531 89.800781 46.882812 90.003906 C 47.371094 90.203125 47.847656 90.429688 48.316406 90.679688 C 48.78125 90.925781 49.234375 91.199219 49.675781 91.492188 C 50.117188 91.785156 50.539062 92.097656 50.949219 92.433594 C 51.359375 92.769531 51.75 93.125 52.125 93.496094 C 52.5 93.871094 52.855469 94.261719 53.191406 94.667969 C 53.527344 95.078125 53.839844 95.5 54.136719 95.941406 C 54.429688 96.378906 54.699219 96.832031 54.949219 97.296875 C 55.199219 97.761719 55.425781 98.238281 55.628906 98.726562 C 55.832031 99.214844 56.007812 99.710938 56.164062 100.21875 C 56.316406 100.722656 56.445312 101.234375 56.546875 101.75 C 56.652344 102.269531 56.730469 102.792969 56.78125 103.316406 C 56.832031 103.84375 56.859375 104.367188 56.859375 104.898438 C 56.859375 105.425781 56.832031 105.953125 56.78125 106.476562 C 56.730469 107.003906 56.652344 107.523438 56.546875 108.042969 C 56.445312 108.558594 56.316406 109.070312 56.164062 109.578125 C 56.007812 110.082031 55.832031 110.578125 55.628906 111.066406 C 55.425781 111.554688 55.199219 112.03125 54.949219 112.496094 C 54.699219 112.960938 54.429688 113.414062 54.136719 113.855469 C 53.839844 114.292969 53.527344 114.714844 53.191406 115.125 C 52.855469 115.53125 52.5 115.921875 52.125 116.296875 C 51.75 116.671875 51.359375 117.023438 50.949219 117.359375 C 50.539062 117.695312 50.117188 118.007812 49.675781 118.300781 C 49.234375 118.59375 48.78125 118.867188 48.316406 119.113281 C 47.847656 119.363281 47.371094 119.589844 46.882812 119.792969 C 46.394531 119.992188 45.894531 120.171875 45.390625 120.324219 C 44.882812 120.476562 44.371094 120.605469 43.851562 120.710938 C 43.332031 120.8125 42.808594 120.890625 42.28125 120.941406 C 41.753906 120.992188 41.226562 121.019531 40.699219 121.019531 Z M 40.699219 97.988281 C 40.242188 97.988281 39.792969 98.03125 39.347656 98.121094 C 38.898438 98.207031 38.46875 98.339844 38.046875 98.511719 C 37.625 98.6875 37.226562 98.898438 36.847656 99.152344 C 36.472656 99.402344 36.121094 99.691406 35.800781 100.011719 C 35.476562 100.332031 35.191406 100.679688 34.9375 101.058594 C 34.6875 101.433594 34.472656 101.832031 34.296875 102.253906 C 34.125 102.671875 33.992188 103.105469 33.90625 103.550781 C 33.816406 103.992188 33.769531 104.441406 33.769531 104.898438 C 33.769531 105.351562 33.816406 105.800781 33.90625 106.246094 C 33.992188 106.691406 34.125 107.121094 34.296875 107.539062 C 34.472656 107.960938 34.6875 108.359375 34.9375 108.734375 C 35.191406 109.113281 35.476562 109.460938 35.800781 109.78125 C 36.121094 110.101562 36.472656 110.390625 36.847656 110.640625 C 37.226562 110.894531 37.625 111.105469 38.046875 111.28125 C 38.46875 111.453125 38.898438 111.585938 39.347656 111.671875 C 39.792969 111.761719 40.242188 111.804688 40.699219 111.804688 C 41.152344 111.804688 41.601562 111.761719 42.046875 111.671875 C 42.496094 111.585938 42.929688 111.453125 43.347656 111.28125 C 43.769531 111.105469 44.167969 110.894531 44.546875 110.640625 C 44.921875 110.390625 45.273438 110.101562 45.59375 109.78125 C 45.917969 109.460938 46.203125 109.113281 46.457031 108.734375 C 46.710938 108.359375 46.921875 107.960938 47.097656 107.539062 C 47.269531 107.121094 47.402344 106.691406 47.492188 106.246094 C 47.578125 105.800781 47.625 105.351562 47.625 104.898438 C 47.625 104.441406 47.578125 103.992188 47.492188 103.550781 C 47.402344 103.105469 47.269531 102.671875 47.097656 102.253906 C 46.921875 101.832031 46.710938 101.433594 46.457031 101.058594 C 46.203125 100.679688 45.917969 100.332031 45.59375 100.011719 C 45.273438 99.691406 44.921875 99.402344 44.546875 99.152344 C 44.167969 98.898438 43.769531 98.6875 43.347656 98.511719 C 42.929688 98.339844 42.496094 98.207031 42.046875 98.121094 C 41.601562 98.03125 41.152344 97.988281 40.699219 97.988281 Z M 40.699219 97.988281 " fill-opacity="1" fill-rule="nonzero"/></g><g clip-path="url(#648b5cb663)"><path fill="#7f5283" d="M 109.960938 121.019531 C 109.429688 121.019531 108.902344 120.992188 108.375 120.941406 C 107.847656 120.890625 107.324219 120.8125 106.804688 120.710938 C 106.285156 120.605469 105.773438 120.476562 105.269531 120.324219 C 104.761719 120.171875 104.261719 119.992188 103.773438 119.792969 C 103.285156 119.589844 102.808594 119.363281 102.339844 119.113281 C 101.875 118.867188 101.421875 118.59375 100.980469 118.300781 C 100.539062 118.007812 100.117188 117.695312 99.707031 117.359375 C 99.296875 117.023438 98.90625 116.671875 98.53125 116.296875 C 98.15625 115.921875 97.800781 115.53125 97.464844 115.125 C 97.128906 114.714844 96.816406 114.292969 96.523438 113.855469 C 96.226562 113.414062 95.957031 112.960938 95.707031 112.496094 C 95.457031 112.03125 95.230469 111.554688 95.027344 111.066406 C 94.824219 110.578125 94.648438 110.082031 94.492188 109.578125 C 94.339844 109.070312 94.210938 108.558594 94.109375 108.042969 C 94.003906 107.523438 93.929688 107.003906 93.875 106.476562 C 93.824219 105.953125 93.796875 105.425781 93.796875 104.898438 C 93.796875 104.367188 93.824219 103.84375 93.875 103.316406 C 93.929688 102.792969 94.003906 102.269531 94.109375 101.75 C 94.210938 101.234375 94.339844 100.722656 94.492188 100.21875 C 94.648438 99.710938 94.824219 99.214844 95.027344 98.726562 C 95.230469 98.238281 95.457031 97.761719 95.707031 97.296875 C 95.957031 96.832031 96.226562 96.378906 96.523438 95.941406 C 96.816406 95.5 97.128906 95.078125 97.464844 94.667969 C 97.800781 94.261719 98.15625 93.871094 98.53125 93.496094 C 98.90625 93.125 99.296875 92.769531 99.707031 92.433594 C 100.117188 92.097656 100.539062 91.785156 100.980469 91.492188 C 101.421875 91.199219 101.875 90.925781 102.339844 90.679688 C 102.808594 90.429688 103.285156 90.203125 103.773438 90.003906 C 104.261719 89.800781 104.761719 89.621094 105.269531 89.46875 C 105.773438 89.316406 106.285156 89.1875 106.804688 89.085938 C 107.324219 88.980469 107.847656 88.90625 108.375 88.851562 C 108.902344 88.800781 109.429688 88.773438 109.960938 88.773438 C 110.488281 88.773438 111.015625 88.800781 111.542969 88.851562 C 112.070312 88.90625 112.59375 88.980469 113.113281 89.085938 C 113.632812 89.1875 114.144531 89.316406 114.648438 89.46875 C 115.15625 89.621094 115.65625 89.800781 116.144531 90.003906 C 116.632812 90.203125 117.109375 90.429688 117.578125 90.679688 C 118.042969 90.925781 118.496094 91.199219 118.9375 91.492188 C 119.378906 91.785156 119.800781 92.097656 120.210938 92.433594 C 120.621094 92.769531 121.011719 93.125 121.386719 93.496094 C 121.761719 93.871094 122.117188 94.261719 122.453125 94.667969 C 122.789062 95.078125 123.101562 95.5 123.394531 95.941406 C 123.691406 96.378906 123.960938 96.832031 124.210938 97.296875 C 124.460938 97.761719 124.6875 98.238281 124.890625 98.726562 C 125.09375 99.214844 125.269531 99.710938 125.425781 100.21875 C 125.578125 100.722656 125.707031 101.234375 125.808594 101.75 C 125.914062 102.269531 125.992188 102.792969 126.042969 103.316406 C 126.09375 103.84375 126.121094 104.367188 126.121094 104.898438 C 126.121094 105.425781 126.09375 105.953125 126.042969 106.476562 C 125.992188 107.003906 125.914062 107.523438 125.808594 108.042969 C 125.707031 108.558594 125.578125 109.070312 125.425781 109.578125 C 125.269531 110.082031 125.09375 110.578125 124.890625 111.066406 C 124.6875 111.554688 124.460938 112.03125 124.210938 112.496094 C 123.960938 112.960938 123.691406 113.414062 123.394531 113.855469 C 123.101562 114.292969 122.789062 114.714844 122.453125 115.125 C 122.117188 115.53125 121.761719 115.921875 121.386719 116.296875 C 121.011719 116.671875 120.621094 117.023438 120.210938 117.359375 C 119.800781 117.695312 119.378906 118.007812 118.9375 118.300781 C 118.496094 118.59375 118.042969 118.867188 117.578125 119.113281 C 117.109375 119.363281 116.632812 119.589844 116.144531 119.792969 C 115.65625 119.992188 115.15625 120.171875 114.648438 120.324219 C 114.144531 120.476562 113.632812 120.605469 113.113281 120.710938 C 112.59375 120.8125 112.070312 120.890625 111.542969 120.941406 C 111.015625 120.992188 110.488281 121.019531 109.960938 121.019531 Z M 109.960938 97.988281 C 109.503906 97.988281 109.054688 98.03125 108.609375 98.121094 C 108.160156 98.207031 107.730469 98.339844 107.308594 98.511719 C 106.886719 98.6875 106.488281 98.898438 106.109375 99.152344 C 105.734375 99.402344 105.382812 99.691406 105.0625 100.011719 C 104.738281 100.332031 104.453125 100.679688 104.199219 101.058594 C 103.949219 101.433594 103.734375 101.832031 103.558594 102.253906 C 103.386719 102.671875 103.253906 103.105469 103.164062 103.550781 C 103.078125 103.992188 103.03125 104.441406 103.03125 104.898438 C 103.03125 105.351562 103.078125 105.800781 103.164062 106.246094 C 103.253906 106.691406 103.386719 107.121094 103.558594 107.539062 C 103.734375 107.960938 103.949219 108.359375 104.199219 108.734375 C 104.453125 109.113281 104.738281 109.460938 105.0625 109.78125 C 105.382812 110.101562 105.734375 110.390625 106.109375 110.640625 C 106.488281 110.894531 106.886719 111.105469 107.308594 111.28125 C 107.730469 111.453125 108.160156 111.585938 108.609375 111.671875 C 109.054688 111.761719 109.503906 111.804688 109.960938 111.804688 C 110.414062 111.804688 110.863281 111.761719 111.308594 111.671875 C 111.757812 111.585938 112.1875 111.453125 112.609375 111.28125 C 113.03125 111.105469 113.429688 110.894531 113.808594 110.640625 C 114.183594 110.390625 114.535156 110.101562 114.855469 109.78125 C 115.179688 109.460938 115.464844 109.113281 115.71875 108.734375 C 115.96875 108.359375 116.183594 107.960938 116.359375 107.539062 C 116.53125 107.121094 116.664062 106.691406 116.753906 106.246094 C 116.839844 105.800781 116.886719 105.351562 116.886719 104.898438 C 116.886719 104.441406 116.839844 103.992188 116.753906 103.550781 C 116.664062 103.105469 116.53125 102.671875 116.359375 102.253906 C 116.183594 101.832031 115.96875 101.433594 115.71875 101.058594 C 115.464844 100.679688 115.179688 100.332031 114.855469 100.011719 C 114.535156 99.691406 114.183594 99.402344 113.808594 99.152344 C 113.429688 98.898438 113.03125 98.6875 112.609375 98.511719 C 112.1875 98.339844 111.757812 98.207031 111.308594 98.121094 C 110.863281 98.03125 110.414062 97.988281 109.960938 97.988281 Z M 109.960938 97.988281 " fill-opacity="1" fill-rule="nonzero"/></g><g clip-path="url(#31d74dfc45)"><path fill="#7f5283" d="M 84.5625 102.59375 L 70.15625 102.59375 C 69.855469 102.59375 69.554688 102.5625 69.257812 102.503906 C 68.957031 102.445312 68.667969 102.359375 68.390625 102.242188 C 68.109375 102.128906 67.84375 101.984375 67.589844 101.816406 C 67.339844 101.648438 67.105469 101.457031 66.890625 101.246094 C 66.675781 101.03125 66.484375 100.796875 66.316406 100.546875 C 66.148438 100.296875 66.007812 100.03125 65.890625 99.75 C 65.773438 99.472656 65.6875 99.183594 65.628906 98.886719 C 65.570312 98.589844 65.539062 98.289062 65.539062 97.988281 C 65.539062 97.683594 65.570312 97.386719 65.628906 97.089844 C 65.6875 96.792969 65.773438 96.503906 65.890625 96.226562 C 66.007812 95.945312 66.148438 95.679688 66.316406 95.429688 C 66.484375 95.175781 66.675781 94.945312 66.890625 94.730469 C 67.105469 94.515625 67.339844 94.324219 67.589844 94.15625 C 67.84375 93.988281 68.109375 93.847656 68.390625 93.730469 C 68.667969 93.617188 68.957031 93.527344 69.257812 93.46875 C 69.554688 93.410156 69.855469 93.382812 70.15625 93.382812 L 80.824219 93.382812 L 92.691406 38.105469 L 32.664062 38.105469 L 21.027344 93.382812 L 24.121094 93.382812 C 24.425781 93.382812 24.722656 93.410156 25.023438 93.46875 C 25.320312 93.527344 25.609375 93.617188 25.886719 93.730469 C 26.167969 93.847656 26.433594 93.988281 26.6875 94.15625 C 26.9375 94.324219 27.171875 94.515625 27.386719 94.730469 C 27.601562 94.945312 27.792969 95.175781 27.960938 95.429688 C 28.128906 95.679688 28.269531 95.945312 28.386719 96.226562 C 28.503906 96.503906 28.589844 96.792969 28.648438 97.089844 C 28.707031 97.386719 28.738281 97.683594 28.738281 97.988281 C 28.738281 98.289062 28.707031 98.589844 28.648438 98.886719 C 28.589844 99.183594 28.503906 99.472656 28.386719 99.75 C 28.269531 100.03125 28.128906 100.296875 27.960938 100.546875 C 27.792969 100.796875 27.601562 101.03125 27.386719 101.246094 C 27.171875 101.457031 26.9375 101.648438 26.6875 101.816406 C 26.433594 101.984375 26.167969 102.128906 25.886719 102.242188 C 25.609375 102.359375 25.320312 102.445312 25.023438 102.503906 C 24.722656 102.5625 24.425781 102.59375 24.121094 102.59375 L 15.300781 102.59375 C 14.953125 102.601562 14.609375 102.570312 14.265625 102.5 C 13.925781 102.429688 13.59375 102.324219 13.277344 102.175781 C 12.960938 102.03125 12.664062 101.855469 12.386719 101.644531 C 12.109375 101.429688 11.859375 101.191406 11.640625 100.921875 C 11.417969 100.65625 11.226562 100.367188 11.070312 100.054688 C 10.914062 99.742188 10.796875 99.417969 10.710938 99.082031 C 10.628906 98.742188 10.585938 98.398438 10.582031 98.050781 C 10.578125 97.703125 10.609375 97.359375 10.683594 97.019531 L 24.535156 32.53125 C 24.648438 32.007812 24.847656 31.519531 25.132812 31.066406 C 25.414062 30.609375 25.765625 30.214844 26.1875 29.882812 C 26.609375 29.550781 27.074219 29.300781 27.585938 29.132812 C 28.09375 28.960938 28.617188 28.882812 29.152344 28.894531 L 98.414062 28.894531 C 98.765625 28.886719 99.109375 28.917969 99.449219 28.988281 C 99.792969 29.058594 100.121094 29.164062 100.4375 29.308594 C 100.757812 29.453125 101.054688 29.632812 101.328125 29.84375 C 101.605469 30.054688 101.855469 30.296875 102.078125 30.5625 C 102.300781 30.832031 102.488281 31.121094 102.644531 31.433594 C 102.800781 31.742188 102.921875 32.070312 103.003906 32.40625 C 103.085938 32.746094 103.132812 33.085938 103.136719 33.433594 C 103.140625 33.78125 103.105469 34.128906 103.03125 34.46875 L 89.179688 98.953125 C 89.066406 99.480469 88.871094 99.96875 88.585938 100.421875 C 88.300781 100.878906 87.949219 101.269531 87.527344 101.601562 C 87.105469 101.933594 86.640625 102.1875 86.132812 102.355469 C 85.625 102.527344 85.101562 102.605469 84.5625 102.59375 Z M 84.5625 102.59375 " fill-opacity="1" fill-rule="nonzero"/></g><path fill="#7f5283" d="M 70.109375 102.59375 L 49.933594 102.59375 C 49.628906 102.59375 49.328125 102.5625 49.03125 102.503906 C 48.734375 102.445312 48.445312 102.359375 48.164062 102.242188 C 47.886719 102.128906 47.621094 101.984375 47.367188 101.816406 C 47.113281 101.648438 46.882812 101.457031 46.667969 101.246094 C 46.453125 101.03125 46.261719 100.796875 46.09375 100.546875 C 45.925781 100.296875 45.78125 100.03125 45.667969 99.75 C 45.550781 99.472656 45.460938 99.183594 45.402344 98.886719 C 45.34375 98.589844 45.316406 98.289062 45.316406 97.988281 C 45.316406 97.683594 45.34375 97.386719 45.402344 97.089844 C 45.460938 96.792969 45.550781 96.503906 45.667969 96.226562 C 45.78125 95.945312 45.925781 95.679688 46.09375 95.429688 C 46.261719 95.175781 46.453125 94.945312 46.667969 94.730469 C 46.882812 94.515625 47.113281 94.324219 47.367188 94.15625 C 47.621094 93.988281 47.886719 93.847656 48.164062 93.730469 C 48.445312 93.617188 48.734375 93.527344 49.03125 93.46875 C 49.328125 93.410156 49.628906 93.382812 49.933594 93.382812 L 70.109375 93.382812 C 70.414062 93.382812 70.714844 93.410156 71.011719 93.46875 C 71.308594 93.527344 71.597656 93.617188 71.878906 93.730469 C 72.15625 93.847656 72.421875 93.988281 72.675781 94.15625 C 72.929688 94.324219 73.160156 94.515625 73.375 94.730469 C 73.589844 94.945312 73.78125 95.175781 73.949219 95.429688 C 74.117188 95.679688 74.261719 95.945312 74.375 96.226562 C 74.492188 96.503906 74.582031 96.792969 74.640625 97.089844 C 74.699219 97.386719 74.726562 97.683594 74.726562 97.988281 C 74.726562 98.289062 74.699219 98.589844 74.640625 98.886719 C 74.582031 99.183594 74.492188 99.472656 74.375 99.75 C 74.261719 100.03125 74.117188 100.296875 73.949219 100.546875 C 73.78125 100.796875 73.589844 101.03125 73.375 101.246094 C 73.160156 101.457031 72.929688 101.648438 72.675781 101.816406 C 72.421875 101.984375 72.15625 102.128906 71.878906 102.242188 C 71.597656 102.359375 71.308594 102.445312 71.011719 102.503906 C 70.714844 102.5625 70.414062 102.59375 70.109375 102.59375 Z M 70.109375 102.59375 " fill-opacity="1" fill-rule="nonzero"/><path fill="#7f5283" d="M 31.460938 102.59375 L 24.121094 102.59375 C 23.816406 102.59375 23.515625 102.5625 23.21875 102.503906 C 22.921875 102.445312 22.632812 102.359375 22.355469 102.242188 C 22.074219 102.128906 21.808594 101.984375 21.554688 101.816406 C 21.304688 101.648438 21.070312 101.457031 20.855469 101.246094 C 20.640625 101.03125 20.449219 100.796875 20.28125 100.546875 C 20.113281 100.296875 19.972656 100.03125 19.855469 99.75 C 19.738281 99.472656 19.652344 99.183594 19.59375 98.886719 C 19.53125 98.589844 19.503906 98.289062 19.503906 97.988281 C 19.503906 97.683594 19.53125 97.386719 19.59375 97.089844 C 19.652344 96.792969 19.738281 96.503906 19.855469 96.226562 C 19.972656 95.945312 20.113281 95.679688 20.28125 95.429688 C 20.449219 95.175781 20.640625 94.945312 20.855469 94.730469 C 21.070312 94.515625 21.304688 94.324219 21.554688 94.15625 C 21.808594 93.988281 22.074219 93.847656 22.355469 93.730469 C 22.632812 93.617188 22.921875 93.527344 23.21875 93.46875 C 23.515625 93.410156 23.816406 93.382812 24.121094 93.382812 L 31.460938 93.382812 C 31.765625 93.382812 32.066406 93.410156 32.363281 93.46875 C 32.660156 93.527344 32.949219 93.617188 33.230469 93.730469 C 33.507812 93.847656 33.777344 93.988281 34.027344 94.15625 C 34.28125 94.324219 34.511719 94.515625 34.726562 94.730469 C 34.941406 94.945312 35.132812 95.175781 35.300781 95.429688 C 35.46875 95.679688 35.613281 95.945312 35.730469 96.226562 C 35.84375 96.503906 35.933594 96.792969 35.992188 97.089844 C 36.050781 97.386719 36.078125 97.683594 36.078125 97.988281 C 36.078125 98.289062 36.050781 98.589844 35.992188 98.886719 C 35.933594 99.183594 35.84375 99.472656 35.730469 99.75 C 35.613281 100.03125 35.46875 100.296875 35.300781 100.546875 C 35.132812 100.796875 34.941406 101.03125 34.726562 101.246094 C 34.511719 101.457031 34.28125 101.648438 34.027344 101.816406 C 33.777344 101.984375 33.507812 102.128906 33.230469 102.242188 C 32.949219 102.359375 32.660156 102.445312 32.363281 102.503906 C 32.066406 102.5625 31.765625 102.59375 31.460938 102.59375 Z M 31.460938 102.59375 " fill-opacity="1" fill-rule="nonzero"/><g clip-path="url(#a74e5262cd)"><path fill="#7f5283" d="M 130.738281 102.59375 L 119.195312 102.59375 C 118.890625 102.59375 118.589844 102.5625 118.292969 102.503906 C 117.996094 102.445312 117.707031 102.359375 117.425781 102.242188 C 117.148438 102.128906 116.878906 101.984375 116.628906 101.816406 C 116.375 101.648438 116.144531 101.457031 115.929688 101.246094 C 115.714844 101.03125 115.523438 100.796875 115.355469 100.546875 C 115.1875 100.296875 115.042969 100.03125 114.929688 99.75 C 114.8125 99.472656 114.722656 99.183594 114.664062 98.886719 C 114.605469 98.589844 114.578125 98.289062 114.578125 97.988281 C 114.578125 97.683594 114.605469 97.386719 114.664062 97.089844 C 114.722656 96.792969 114.8125 96.503906 114.929688 96.226562 C 115.042969 95.945312 115.1875 95.679688 115.355469 95.429688 C 115.523438 95.175781 115.714844 94.945312 115.929688 94.730469 C 116.144531 94.515625 116.375 94.324219 116.628906 94.15625 C 116.878906 93.988281 117.148438 93.847656 117.425781 93.730469 C 117.707031 93.617188 117.996094 93.527344 118.292969 93.46875 C 118.589844 93.410156 118.890625 93.382812 119.195312 93.382812 L 126.8125 93.382812 L 130.460938 71.640625 L 114.667969 51.925781 L 99.109375 51.925781 L 90.289062 93.382812 L 100.722656 93.382812 C 101.027344 93.382812 101.328125 93.410156 101.625 93.46875 C 101.921875 93.527344 102.210938 93.617188 102.492188 93.730469 C 102.769531 93.847656 103.039062 93.988281 103.289062 94.15625 C 103.542969 94.324219 103.773438 94.515625 103.988281 94.730469 C 104.203125 94.945312 104.394531 95.175781 104.5625 95.429688 C 104.730469 95.679688 104.875 95.945312 104.988281 96.226562 C 105.105469 96.503906 105.195312 96.792969 105.253906 97.089844 C 105.3125 97.386719 105.339844 97.683594 105.339844 97.988281 C 105.339844 98.289062 105.3125 98.589844 105.253906 98.886719 C 105.195312 99.183594 105.105469 99.472656 104.988281 99.75 C 104.875 100.03125 104.730469 100.296875 104.5625 100.546875 C 104.394531 100.796875 104.203125 101.03125 103.988281 101.246094 C 103.773438 101.457031 103.542969 101.648438 103.289062 101.816406 C 103.039062 101.984375 102.769531 102.128906 102.492188 102.242188 C 102.210938 102.359375 101.921875 102.445312 101.625 102.503906 C 101.328125 102.5625 101.027344 102.59375 100.722656 102.59375 L 84.5625 102.59375 C 84.214844 102.601562 83.871094 102.570312 83.527344 102.5 C 83.1875 102.429688 82.855469 102.324219 82.539062 102.175781 C 82.222656 102.03125 81.925781 101.855469 81.648438 101.644531 C 81.371094 101.429688 81.121094 101.191406 80.902344 100.921875 C 80.679688 100.65625 80.488281 100.367188 80.332031 100.054688 C 80.175781 99.742188 80.058594 99.417969 79.972656 99.082031 C 79.890625 98.742188 79.847656 98.398438 79.84375 98.050781 C 79.839844 97.703125 79.871094 97.359375 79.945312 97.019531 L 90.75 46.628906 C 90.863281 46.105469 91.0625 45.613281 91.34375 45.160156 C 91.628906 44.707031 91.980469 44.3125 92.402344 43.980469 C 92.824219 43.648438 93.289062 43.394531 93.800781 43.226562 C 94.308594 43.054688 94.832031 42.976562 95.367188 42.988281 L 116.886719 42.710938 C 117.597656 42.707031 118.269531 42.859375 118.910156 43.167969 C 119.550781 43.476562 120.09375 43.90625 120.53125 44.460938 L 139.003906 67.492188 C 139.410156 68 139.699219 68.5625 139.867188 69.1875 C 140.035156 69.8125 140.070312 70.445312 139.972656 71.085938 L 135.355469 98.722656 C 135.265625 99.269531 135.085938 99.78125 134.8125 100.261719 C 134.539062 100.742188 134.191406 101.160156 133.765625 101.515625 C 133.34375 101.871094 132.871094 102.140625 132.347656 102.324219 C 131.828125 102.511719 131.289062 102.601562 130.738281 102.59375 Z M 130.738281 102.59375 " fill-opacity="1" fill-rule="nonzero"/></g><g clip-path="url(#ed79e4eb71)"><path fill="#7f5283" d="M 66.09375 51.925781 L 15.300781 51.925781 C 15 51.925781 14.699219 51.894531 14.402344 51.835938 C 14.101562 51.777344 13.816406 51.691406 13.535156 51.574219 C 13.253906 51.457031 12.988281 51.316406 12.734375 51.148438 C 12.484375 50.980469 12.25 50.789062 12.035156 50.574219 C 11.820312 50.363281 11.628906 50.128906 11.460938 49.878906 C 11.292969 49.625 11.152344 49.359375 11.035156 49.082031 C 10.917969 48.800781 10.832031 48.515625 10.773438 48.21875 C 10.714844 47.921875 10.683594 47.621094 10.683594 47.320312 C 10.683594 47.015625 10.714844 46.714844 10.773438 46.421875 C 10.832031 46.125 10.917969 45.835938 11.035156 45.554688 C 11.152344 45.277344 11.292969 45.011719 11.460938 44.757812 C 11.628906 44.507812 11.820312 44.277344 12.035156 44.0625 C 12.25 43.847656 12.484375 43.65625 12.734375 43.488281 C 12.988281 43.320312 13.253906 43.179688 13.535156 43.0625 C 13.816406 42.949219 14.101562 42.859375 14.402344 42.800781 C 14.699219 42.742188 15 42.710938 15.300781 42.710938 L 66.09375 42.710938 C 66.398438 42.710938 66.695312 42.742188 66.996094 42.800781 C 67.292969 42.859375 67.582031 42.949219 67.859375 43.0625 C 68.140625 43.179688 68.40625 43.320312 68.660156 43.488281 C 68.910156 43.65625 69.144531 43.847656 69.359375 44.0625 C 69.574219 44.277344 69.765625 44.507812 69.933594 44.757812 C 70.101562 45.011719 70.242188 45.277344 70.359375 45.554688 C 70.476562 45.835938 70.5625 46.125 70.621094 46.421875 C 70.679688 46.714844 70.710938 47.015625 70.710938 47.320312 C 70.710938 47.621094 70.679688 47.921875 70.621094 48.21875 C 70.5625 48.515625 70.476562 48.800781 70.359375 49.082031 C 70.242188 49.359375 70.101562 49.625 69.933594 49.878906 C 69.765625 50.128906 69.574219 50.363281 69.359375 50.574219 C 69.144531 50.789062 68.910156 50.980469 68.660156 51.148438 C 68.40625 51.316406 68.140625 51.457031 67.859375 51.574219 C 67.582031 51.691406 67.292969 51.777344 66.996094 51.835938 C 66.695312 51.894531 66.398438 51.925781 66.09375 51.925781 Z M 66.09375 51.925781 " fill-opacity="1" fill-rule="nonzero"/></g><g clip-path="url(#57c9d7163f)"><path fill="#7f5283" d="M 61.476562 65.742188 L 15.300781 65.742188 C 15 65.742188 14.699219 65.714844 14.402344 65.65625 C 14.101562 65.597656 13.816406 65.507812 13.535156 65.394531 C 13.253906 65.277344 12.988281 65.136719 12.734375 64.96875 C 12.484375 64.800781 12.25 64.609375 12.035156 64.394531 C 11.820312 64.179688 11.628906 63.949219 11.460938 63.695312 C 11.292969 63.445312 11.152344 63.179688 11.035156 62.898438 C 10.917969 62.621094 10.832031 62.332031 10.773438 62.035156 C 10.714844 61.738281 10.683594 61.441406 10.683594 61.136719 C 10.683594 60.835938 10.714844 60.535156 10.773438 60.238281 C 10.832031 59.941406 10.917969 59.652344 11.035156 59.375 C 11.152344 59.09375 11.292969 58.828125 11.460938 58.578125 C 11.628906 58.328125 11.820312 58.09375 12.035156 57.878906 C 12.25 57.667969 12.484375 57.476562 12.734375 57.308594 C 12.988281 57.140625 13.253906 56.996094 13.535156 56.882812 C 13.816406 56.765625 14.101562 56.679688 14.402344 56.621094 C 14.699219 56.5625 15 56.53125 15.300781 56.53125 L 61.476562 56.53125 C 61.777344 56.53125 62.078125 56.5625 62.375 56.621094 C 62.675781 56.679688 62.960938 56.765625 63.242188 56.882812 C 63.523438 56.996094 63.789062 57.140625 64.042969 57.308594 C 64.292969 57.476562 64.527344 57.667969 64.742188 57.878906 C 64.957031 58.09375 65.148438 58.328125 65.316406 58.578125 C 65.484375 58.828125 65.625 59.09375 65.742188 59.375 C 65.859375 59.652344 65.945312 59.941406 66.003906 60.238281 C 66.0625 60.535156 66.09375 60.835938 66.09375 61.136719 C 66.09375 61.441406 66.0625 61.738281 66.003906 62.035156 C 65.945312 62.332031 65.859375 62.621094 65.742188 62.898438 C 65.625 63.179688 65.484375 63.445312 65.316406 63.695312 C 65.148438 63.949219 64.957031 64.179688 64.742188 64.394531 C 64.527344 64.609375 64.292969 64.800781 64.042969 64.96875 C 63.789062 65.136719 63.523438 65.277344 63.242188 65.394531 C 62.960938 65.507812 62.675781 65.597656 62.375 65.65625 C 62.078125 65.714844 61.777344 65.742188 61.476562 65.742188 Z M 61.476562 65.742188 " fill-opacity="1" fill-rule="nonzero"/></g><g clip-path="url(#8a61387dd4)"><path fill="#7f5283" d="M 56.859375 79.5625 L 15.300781 79.5625 C 15 79.5625 14.699219 79.53125 14.402344 79.472656 C 14.101562 79.414062 13.816406 79.328125 13.535156 79.210938 C 13.253906 79.097656 12.988281 78.953125 12.734375 78.785156 C 12.484375 78.617188 12.25 78.425781 12.035156 78.214844 C 11.820312 78 11.628906 77.765625 11.460938 77.515625 C 11.292969 77.265625 11.152344 77 11.035156 76.71875 C 10.917969 76.441406 10.832031 76.152344 10.773438 75.855469 C 10.714844 75.558594 10.683594 75.257812 10.683594 74.957031 C 10.683594 74.652344 10.714844 74.355469 10.773438 74.058594 C 10.832031 73.761719 10.917969 73.472656 11.035156 73.195312 C 11.152344 72.914062 11.292969 72.648438 11.460938 72.398438 C 11.628906 72.144531 11.820312 71.914062 12.035156 71.699219 C 12.25 71.484375 12.484375 71.292969 12.734375 71.125 C 12.988281 70.957031 13.253906 70.816406 13.535156 70.699219 C 13.816406 70.585938 14.101562 70.496094 14.402344 70.4375 C 14.699219 70.378906 15 70.351562 15.300781 70.351562 L 56.859375 70.351562 C 57.160156 70.351562 57.460938 70.378906 57.757812 70.4375 C 58.058594 70.496094 58.34375 70.585938 58.625 70.699219 C 58.90625 70.816406 59.171875 70.957031 59.425781 71.125 C 59.675781 71.292969 59.910156 71.484375 60.125 71.699219 C 60.339844 71.914062 60.53125 72.144531 60.699219 72.398438 C 60.867188 72.648438 61.007812 72.914062 61.125 73.195312 C 61.242188 73.472656 61.328125 73.761719 61.386719 74.058594 C 61.445312 74.355469 61.476562 74.652344 61.476562 74.957031 C 61.476562 75.257812 61.445312 75.558594 61.386719 75.855469 C 61.328125 76.152344 61.242188 76.441406 61.125 76.71875 C 61.007812 77 60.867188 77.265625 60.699219 77.515625 C 60.53125 77.765625 60.339844 78 60.125 78.214844 C 59.910156 78.425781 59.675781 78.617188 59.425781 78.785156 C 59.171875 78.953125 58.90625 79.097656 58.625 79.210938 C 58.34375 79.328125 58.058594 79.414062 57.757812 79.472656 C 57.460938 79.53125 57.160156 79.5625 56.859375 79.5625 Z M 56.859375 79.5625 " fill-opacity="1" fill-rule="nonzero"/></g><path fill="#7f5283" d="M 107.648438 65.742188 L 93.796875 65.742188 C 93.496094 65.742188 93.195312 65.714844 92.898438 65.65625 C 92.601562 65.597656 92.3125 65.507812 92.03125 65.394531 C 91.75 65.277344 91.484375 65.136719 91.234375 64.96875 C 90.980469 64.800781 90.746094 64.609375 90.53125 64.394531 C 90.320312 64.179688 90.128906 63.949219 89.957031 63.695312 C 89.789062 63.445312 89.648438 63.179688 89.53125 62.898438 C 89.417969 62.621094 89.328125 62.332031 89.269531 62.035156 C 89.210938 61.738281 89.179688 61.441406 89.179688 61.136719 C 89.179688 60.835938 89.210938 60.535156 89.269531 60.238281 C 89.328125 59.941406 89.417969 59.652344 89.53125 59.375 C 89.648438 59.09375 89.789062 58.828125 89.957031 58.578125 C 90.128906 58.328125 90.320312 58.09375 90.53125 57.878906 C 90.746094 57.667969 90.980469 57.476562 91.234375 57.308594 C 91.484375 57.140625 91.75 56.996094 92.03125 56.882812 C 92.3125 56.765625 92.601562 56.679688 92.898438 56.621094 C 93.195312 56.5625 93.496094 56.53125 93.796875 56.53125 L 107.648438 56.53125 C 107.953125 56.53125 108.253906 56.5625 108.550781 56.621094 C 108.847656 56.679688 109.136719 56.765625 109.417969 56.882812 C 109.699219 56.996094 109.964844 57.140625 110.214844 57.308594 C 110.46875 57.476562 110.699219 57.667969 110.914062 57.878906 C 111.128906 58.09375 111.320312 58.328125 111.488281 58.578125 C 111.65625 58.828125 111.800781 59.09375 111.917969 59.375 C 112.03125 59.652344 112.121094 59.941406 112.179688 60.238281 C 112.238281 60.535156 112.269531 60.835938 112.269531 61.136719 C 112.269531 61.441406 112.238281 61.738281 112.179688 62.035156 C 112.121094 62.332031 112.03125 62.621094 111.917969 62.898438 C 111.800781 63.179688 111.65625 63.445312 111.488281 63.695312 C 111.320312 63.949219 111.128906 64.179688 110.914062 64.394531 C 110.699219 64.609375 110.46875 64.800781 110.214844 64.96875 C 109.964844 65.136719 109.699219 65.277344 109.417969 65.394531 C 109.136719 65.507812 108.847656 65.597656 108.550781 65.65625 C 108.253906 65.714844 107.953125 65.742188 107.648438 65.742188 Z M 107.648438 65.742188 " fill-opacity="1" fill-rule="nonzero"/></svg>