<svg width="48" height="48" viewBox="0 0 48 48" fill="none" xmlns="http://www.w3.org/2000/svg">
<path d="M9 6C5.15762 6 2 9.15762 2 13V36C2 39.2899 4.71006 42 8 42H16V27.3477L24 33.5977L32 27.3477V42H40C43.2899 42 46 39.2899 46 36V13C46 9.15762 42.8424 6 39 6C37.5002 6 35.9651 6.48452 34.6875 7.48438L24 15.8242L13.3125 7.48438H13.3086C12.0316 6.48616 10.4985 6 9 6ZM9 10C9.66025 10 10.2852 10.1966 10.8477 10.6367L12 11.5352V19.1484L6 14.4648V13C6 11.3184 7.31838 10 9 10ZM39 10C40.6816 10 42 11.3184 42 13V14.4648L36 19.1484V11.5352L37.1523 10.6367C37.7147 10.1966 38.3398 10 39 10ZM16 14.6562L24 20.8984L32 14.6562V22.2734L24 28.5234L16 22.2734V14.6562ZM6 19.5391L12 24.2227V38H8C6.86994 38 6 37.1301 6 36V19.5391ZM42 19.5391V36C42 37.1301 41.1301 38 40 38H36V24.2227L42 19.5391Z" fill="black"/>
</svg>
