<svg width="48" height="48" viewBox="0 0 48 48" fill="none" xmlns="http://www.w3.org/2000/svg">
<path d="M43.83 21.504L43.394 18H34.608L40.556 12.052L37.46 9.23C33.76 5.858 28.98 4 24 4C12.972 4 4 12.972 4 24C4 35.028 12.972 44 24 44C35.028 44 44 35.028 44 24C44 23.22 43.946 22.428 43.83 21.504ZM24 40C15.164 40 8 32.836 8 24C8 15.164 15.164 8 24 8C28.152 8 31.92 9.594 34.764 12.186L30.496 16.454C28.744 14.946 26.494 14 24 14C18.478 14 14 18.478 14 24C14 29.522 18.478 34 24 34C28.098 34 31.612 31.528 33.156 28H26V22H39.862C39.944 22.656 40 23.322 40 24C40 32.836 32.836 40 24 40ZM22 18.342V22V28V29.658C19.672 28.832 18 26.608 18 24C18 21.392 19.672 19.168 22 18.342Z" fill="black"/>
</svg>
