<svg xmlns="http://www.w3.org/2000/svg" xmlns:xlink="http://www.w3.org/1999/xlink" width="200" zoomAndPan="magnify" viewBox="0 0 150 149.999998" height="200" preserveAspectRatio="xMidYMid meet" version="1.0"><defs><clipPath id="56b4512d35"><path d="M 65 8.613281 L 85 8.613281 L 85 29 L 65 29 Z M 65 8.613281 " clip-rule="nonzero"/></clipPath><clipPath id="c1d15f5dbe"><path d="M 5.667969 52 L 26 52 L 26 72 L 5.667969 72 Z M 5.667969 52 " clip-rule="nonzero"/></clipPath><clipPath id="5d3ca455d8"><path d="M 124.828125 52.140625 L 144.386719 52.140625 L 144.386719 71.648438 L 124.828125 71.648438 Z M 124.828125 52.140625 " clip-rule="nonzero"/></clipPath><clipPath id="723df1d697"><path d="M 102.316406 121.851562 L 121.898438 121.851562 L 121.898438 141.363281 L 102.316406 141.363281 Z M 102.316406 121.851562 " clip-rule="nonzero"/></clipPath><clipPath id="7e87d40be5"><path d="M 29.09375 121.851562 L 48.671875 121.851562 L 48.671875 141.363281 L 29.09375 141.363281 Z M 29.09375 121.851562 " clip-rule="nonzero"/></clipPath></defs><g clip-path="url(#56b4512d35)"><path fill="#7f5283" d="M 75.042969 12.472656 C 78.292969 12.472656 80.9375 15.113281 80.9375 18.363281 C 80.9375 21.613281 78.292969 24.253906 75.042969 24.253906 C 71.792969 24.253906 69.148438 21.613281 69.148438 18.363281 C 69.148438 15.113281 71.792969 12.472656 75.042969 12.472656 Z M 75.042969 28.113281 C 80.421875 28.113281 84.800781 23.738281 84.800781 18.363281 C 84.800781 12.988281 80.421875 8.613281 75.042969 8.613281 C 69.664062 8.613281 65.289062 12.988281 65.289062 18.363281 C 65.289062 23.738281 69.664062 28.113281 75.042969 28.113281 " fill-opacity="1" fill-rule="nonzero"/></g><g clip-path="url(#c1d15f5dbe)"><path fill="#7f5283" d="M 15.457031 67.785156 C 12.207031 67.785156 9.5625 65.144531 9.5625 61.898438 C 9.5625 58.648438 12.207031 56.003906 15.457031 56.003906 C 18.707031 56.003906 21.351562 58.648438 21.351562 61.898438 C 21.351562 65.144531 18.707031 67.785156 15.457031 67.785156 Z M 15.457031 52.148438 C 10.078125 52.148438 5.699219 56.519531 5.699219 61.898438 C 5.699219 67.273438 10.078125 71.644531 15.457031 71.644531 C 20.835938 71.644531 25.214844 67.273438 25.214844 61.898438 C 25.214844 56.519531 20.835938 52.148438 15.457031 52.148438 " fill-opacity="1" fill-rule="nonzero"/></g><g clip-path="url(#5d3ca455d8)"><path fill="#7f5283" d="M 134.628906 67.785156 C 131.378906 67.785156 128.734375 65.144531 128.734375 61.894531 C 128.734375 58.648438 131.378906 56.003906 134.628906 56.003906 C 137.878906 56.003906 140.527344 58.648438 140.527344 61.894531 C 140.527344 65.144531 137.878906 67.785156 134.628906 67.785156 Z M 134.628906 52.148438 C 129.25 52.148438 124.875 56.519531 124.875 61.894531 C 124.875 67.273438 129.25 71.644531 134.628906 71.644531 C 140.011719 71.644531 144.386719 67.273438 144.386719 61.894531 C 144.386719 56.519531 140.011719 52.148438 134.628906 52.148438 " fill-opacity="1" fill-rule="nonzero"/></g><g clip-path="url(#723df1d697)"><path fill="#7f5283" d="M 112.125 137.507812 C 108.875 137.507812 106.230469 134.867188 106.230469 131.617188 C 106.230469 128.371094 108.875 125.726562 112.125 125.726562 C 115.375 125.726562 118.019531 128.371094 118.019531 131.617188 C 118.019531 134.867188 115.375 137.507812 112.125 137.507812 Z M 112.125 121.867188 C 106.746094 121.867188 102.367188 126.242188 102.367188 131.617188 C 102.367188 136.992188 106.746094 141.367188 112.125 141.367188 C 117.503906 141.367188 121.878906 136.992188 121.878906 131.617188 C 121.878906 126.242188 117.503906 121.867188 112.125 121.867188 " fill-opacity="1" fill-rule="nonzero"/></g><g clip-path="url(#7e87d40be5)"><path fill="#7f5283" d="M 38.859375 137.507812 C 35.609375 137.507812 32.964844 134.867188 32.964844 131.617188 C 32.964844 128.371094 35.609375 125.726562 38.859375 125.726562 C 42.109375 125.726562 44.753906 128.371094 44.753906 131.617188 C 44.753906 134.867188 42.109375 137.507812 38.859375 137.507812 Z M 38.859375 121.867188 C 33.480469 121.867188 29.105469 126.242188 29.105469 131.617188 C 29.105469 136.992188 33.480469 141.367188 38.859375 141.367188 C 44.238281 141.367188 48.617188 136.992188 48.617188 131.617188 C 48.617188 126.242188 44.238281 121.867188 38.859375 121.867188 " fill-opacity="1" fill-rule="nonzero"/></g><path fill="#7f5283" d="M 58.210938 103.933594 C 57.347656 103.3125 56.140625 103.507812 55.519531 104.375 L 55.101562 104.953125 C 54.480469 105.816406 54.679688 107.023438 55.546875 107.644531 C 55.886719 107.890625 56.28125 108.007812 56.667969 108.007812 C 57.269531 108.007812 57.863281 107.726562 58.238281 107.203125 L 58.65625 106.625 C 59.277344 105.761719 59.078125 104.554688 58.210938 103.933594 " fill-opacity="1" fill-rule="nonzero"/><path fill="#7f5283" d="M 53.648438 110.28125 C 52.78125 109.660156 51.578125 109.859375 50.957031 110.722656 L 50.539062 111.300781 C 49.917969 112.167969 50.117188 113.371094 50.984375 113.992188 C 51.324219 114.238281 51.71875 114.355469 52.105469 114.355469 C 52.707031 114.355469 53.300781 114.078125 53.675781 113.550781 L 54.089844 112.972656 C 54.714844 112.109375 54.515625 110.902344 53.648438 110.28125 " fill-opacity="1" fill-rule="nonzero"/><path fill="#7f5283" d="M 49.085938 116.632812 C 48.21875 116.011719 47.015625 116.207031 46.390625 117.074219 L 46.167969 117.386719 C 45.546875 118.253906 45.742188 119.457031 46.609375 120.078125 C 46.949219 120.324219 47.34375 120.441406 47.734375 120.441406 C 48.335938 120.441406 48.925781 120.164062 49.304688 119.636719 L 49.527344 119.324219 C 50.152344 118.457031 49.953125 117.253906 49.085938 116.632812 " fill-opacity="1" fill-rule="nonzero"/><path fill="#7f5283" d="M 44.136719 72.417969 L 44.816406 72.636719 C 45.015625 72.703125 45.214844 72.730469 45.410156 72.730469 C 46.226562 72.730469 46.984375 72.210938 47.246094 71.394531 C 47.574219 70.378906 47.015625 69.292969 46 68.964844 L 45.316406 68.746094 C 44.304688 68.417969 43.214844 68.976562 42.890625 69.992188 C 42.5625 71.003906 43.121094 72.09375 44.136719 72.417969 " fill-opacity="1" fill-rule="nonzero"/><path fill="#7f5283" d="M 36.621094 70.003906 L 37.304688 70.222656 C 37.5 70.285156 37.699219 70.316406 37.894531 70.316406 C 38.710938 70.316406 39.46875 69.792969 39.734375 68.976562 C 40.058594 67.960938 39.503906 66.875 38.488281 66.550781 L 37.804688 66.328125 C 36.789062 66.003906 35.703125 66.5625 35.375 67.574219 C 35.046875 68.589844 35.605469 69.675781 36.621094 70.003906 " fill-opacity="1" fill-rule="nonzero"/><path fill="#7f5283" d="M 29.789062 67.804688 C 29.988281 67.867188 30.1875 67.898438 30.382812 67.898438 C 31.199219 67.898438 31.957031 67.378906 32.21875 66.558594 C 32.546875 65.546875 31.988281 64.460938 30.972656 64.132812 L 30.605469 64.015625 C 29.589844 63.6875 28.503906 64.246094 28.175781 65.257812 C 27.851562 66.273438 28.410156 67.359375 29.421875 67.6875 L 29.789062 67.804688 " fill-opacity="1" fill-rule="nonzero"/><path fill="#7f5283" d="M 119.480469 64.023438 L 119.113281 64.140625 C 118.097656 64.46875 117.542969 65.554688 117.871094 66.570312 C 118.132812 67.386719 118.890625 67.90625 119.707031 67.90625 C 119.902344 67.90625 120.105469 67.875 120.300781 67.8125 L 120.667969 67.695312 C 121.683594 67.367188 122.238281 66.28125 121.914062 65.265625 C 121.585938 64.253906 120.496094 63.695312 119.480469 64.023438 " fill-opacity="1" fill-rule="nonzero"/><path fill="#7f5283" d="M 112.230469 70.320312 C 112.425781 70.320312 112.625 70.292969 112.824219 70.226562 L 113.503906 70.007812 C 114.515625 69.679688 115.074219 68.59375 114.746094 67.578125 C 114.417969 66.566406 113.332031 66.007812 112.316406 66.335938 L 111.636719 66.558594 C 110.621094 66.882812 110.0625 67.972656 110.390625 68.984375 C 110.65625 69.800781 111.414062 70.320312 112.230469 70.320312 " fill-opacity="1" fill-rule="nonzero"/><path fill="#7f5283" d="M 75.042969 31.007812 C 75.042969 31.007812 75.042969 31.007812 75.039062 31.007812 C 73.972656 31.007812 73.109375 31.875 73.113281 32.941406 L 73.113281 33.328125 C 73.117188 34.390625 73.980469 35.25 75.042969 35.25 C 75.046875 35.25 75.046875 35.25 75.046875 35.25 C 76.113281 35.25 76.976562 34.382812 76.976562 33.316406 L 76.972656 32.933594 C 76.972656 31.867188 76.109375 31.007812 75.042969 31.007812 " fill-opacity="1" fill-rule="nonzero"/><path fill="#7f5283" d="M 75.089844 54.363281 C 74.023438 54.367188 73.164062 55.230469 73.164062 56.296875 L 73.167969 57.015625 C 73.167969 58.078125 74.03125 58.9375 75.097656 58.9375 C 75.097656 58.9375 75.101562 58.9375 75.101562 58.9375 C 76.167969 58.9375 77.03125 58.070312 77.027344 57.007812 L 77.027344 56.289062 C 77.023438 55.222656 76.160156 54.363281 75.09375 54.363281 C 75.09375 54.363281 75.09375 54.363281 75.089844 54.363281 " fill-opacity="1" fill-rule="nonzero"/><path fill="#7f5283" d="M 75.078125 46.46875 C 75.078125 46.46875 75.074219 46.46875 75.074219 46.46875 C 74.007812 46.46875 73.144531 47.335938 73.148438 48.402344 L 73.148438 49.117188 C 73.152344 50.183594 74.015625 51.042969 75.078125 51.042969 C 75.082031 51.042969 75.082031 51.042969 75.082031 51.042969 C 76.148438 51.042969 77.011719 50.175781 77.007812 49.109375 L 77.007812 48.390625 C 77.007812 47.328125 76.140625 46.46875 75.078125 46.46875 " fill-opacity="1" fill-rule="nonzero"/><path fill="#7f5283" d="M 75.0625 38.570312 C 75.058594 38.570312 75.058594 38.570312 75.054688 38.570312 C 73.992188 38.574219 73.128906 39.4375 73.128906 40.503906 L 73.132812 41.222656 C 73.132812 42.285156 73.996094 43.148438 75.0625 43.148438 C 75.0625 43.148438 75.066406 43.148438 75.066406 43.148438 C 76.132812 43.144531 76.996094 42.277344 76.992188 41.214844 L 76.992188 40.496094 C 76.988281 39.433594 76.125 38.570312 75.0625 38.570312 " fill-opacity="1" fill-rule="nonzero"/><path fill="#7f5283" d="M 104.195312 120.070312 C 105.054688 119.441406 105.246094 118.234375 104.613281 117.375 L 104.386719 117.0625 C 103.757812 116.203125 102.550781 116.015625 101.691406 116.644531 C 100.828125 117.273438 100.640625 118.480469 101.269531 119.339844 L 101.496094 119.652344 C 101.875 120.167969 102.460938 120.441406 103.058594 120.441406 C 103.453125 120.441406 103.851562 120.320312 104.195312 120.070312 " fill-opacity="1" fill-rule="nonzero"/><path fill="#7f5283" d="M 67.328125 90.066406 C 67.621094 90.695312 68.25 91.101562 68.925781 91.125 C 69.042969 91.128906 69.160156 91.121094 69.273438 91.101562 C 69.441406 91.074219 69.601562 91.027344 69.757812 90.953125 C 70.671875 90.53125 71.070312 89.441406 70.648438 88.527344 L 56.503906 57.953125 L 56.46875 57.882812 C 56.160156 57.214844 56.128906 56.46875 56.382812 55.777344 C 56.632812 55.085938 57.140625 54.535156 57.808594 54.226562 C 58.476562 53.917969 59.222656 53.886719 59.914062 54.136719 C 60.605469 54.390625 61.15625 54.898438 61.464844 55.5625 L 71.609375 77.523438 C 71.949219 78.261719 72.75 78.6875 73.554688 78.558594 C 73.722656 78.53125 73.882812 78.480469 74.035156 78.410156 C 74.480469 78.203125 74.816406 77.839844 74.984375 77.378906 C 75.152344 76.921875 75.132812 76.425781 74.925781 75.984375 L 64.785156 54.027344 L 64.773438 54 C 64.050781 52.460938 62.773438 51.289062 61.171875 50.707031 C 59.5625 50.117188 57.824219 50.191406 56.269531 50.910156 C 54.714844 51.632812 53.535156 52.914062 52.945312 54.519531 C 52.359375 56.128906 52.429688 57.867188 53.152344 59.417969 L 67.328125 90.066406 " fill-opacity="1" fill-rule="nonzero"/><path fill="#7f5283" d="M 111.144531 98.492188 C 110.976562 101.140625 110.816406 103.644531 111.855469 105.660156 L 111.863281 105.675781 C 112.171875 106.269531 112.769531 106.640625 113.421875 106.660156 C 113.539062 106.664062 113.65625 106.660156 113.777344 106.640625 C 113.96875 106.609375 114.15625 106.546875 114.332031 106.457031 C 115.226562 105.992188 115.574219 104.886719 115.109375 103.992188 C 114.527344 102.875 114.667969 100.671875 114.792969 98.722656 C 114.953125 96.199219 115.121094 93.59375 114.191406 91.410156 C 112.660156 87.820312 103.796875 69.015625 103.347656 68.066406 L 103.335938 68.042969 C 101.984375 65.167969 98.546875 63.917969 95.660156 65.253906 C 95.132812 65.5 94.644531 65.824219 94.214844 66.210938 C 93.46875 66.886719 93.410156 68.042969 94.085938 68.792969 C 94.761719 69.539062 95.921875 69.597656 96.667969 68.921875 C 96.824219 68.78125 97.003906 68.660156 97.203125 68.570312 C 98.253906 68.082031 99.507812 68.53125 100.011719 69.566406 L 100.039062 69.625 C 100.480469 70.5625 109.351562 89.390625 110.824219 92.84375 C 111.414062 94.226562 111.277344 96.394531 111.144531 98.492188 " fill-opacity="1" fill-rule="nonzero"/><path fill="#7f5283" d="M 88.554688 113.074219 C 88.527344 113.035156 88.503906 113.003906 88.484375 112.972656 C 87.691406 111.84375 86.253906 110.769531 83.675781 109.371094 C 81.9375 108.425781 79.949219 107.496094 77.84375 106.507812 C 73.472656 104.460938 68.523438 102.140625 66.902344 100.050781 L 59.371094 90.3125 C 59.34375 90.265625 59.316406 90.21875 59.28125 90.171875 C 58.855469 89.574219 58.691406 88.84375 58.8125 88.121094 C 58.9375 87.394531 59.335938 86.761719 59.933594 86.335938 C 60.464844 85.960938 61.113281 85.78125 61.761719 85.835938 C 62.25 85.878906 62.722656 85.730469 63.097656 85.414062 C 63.46875 85.101562 63.699219 84.660156 63.738281 84.171875 C 63.78125 83.6875 63.632812 83.214844 63.316406 82.839844 C 63.003906 82.464844 62.5625 82.238281 62.074219 82.195312 C 60.566406 82.066406 59.054688 82.476562 57.816406 83.355469 C 56.421875 84.347656 55.492188 85.820312 55.207031 87.507812 C 54.9375 89.089844 55.269531 90.703125 56.136719 92.046875 C 56.191406 92.15625 56.253906 92.257812 56.328125 92.355469 L 63.984375 102.257812 L 64.015625 102.300781 C 66.183594 105.082031 71.320312 107.488281 76.289062 109.816406 C 78.34375 110.78125 80.285156 111.691406 81.933594 112.582031 C 84.210938 113.820312 85.15625 114.660156 85.542969 115.148438 C 85.980469 115.695312 86.273438 116.355469 86.640625 117.195312 L 86.671875 117.261719 C 86.957031 117.914062 87.589844 118.332031 88.28125 118.355469 C 88.398438 118.359375 88.515625 118.351562 88.632812 118.332031 C 88.789062 118.308594 88.9375 118.261719 89.082031 118.199219 C 89.980469 117.804688 90.398438 116.761719 90.03125 115.820312 C 89.4375 114.296875 88.839844 113.46875 88.554688 113.074219 " fill-opacity="1" fill-rule="nonzero"/><path fill="#7f5283" d="M 93.011719 67.90625 C 92.292969 66.355469 91.007812 65.175781 89.402344 64.589844 C 87.792969 64 86.050781 64.074219 84.496094 64.792969 C 83.726562 65.152344 83.046875 65.648438 82.472656 66.269531 C 82.144531 66.628906 81.972656 67.09375 81.992188 67.582031 C 82.015625 68.070312 82.222656 68.519531 82.585938 68.851562 C 83.328125 69.53125 84.484375 69.484375 85.167969 68.742188 C 85.414062 68.476562 85.703125 68.261719 86.035156 68.109375 C 86.703125 67.800781 87.453125 67.769531 88.144531 68.019531 C 88.835938 68.273438 89.386719 68.78125 89.695312 69.445312 L 90.316406 70.78125 C 90.609375 71.414062 91.238281 71.816406 91.914062 71.839844 C 92.03125 71.84375 92.144531 71.835938 92.261719 71.820312 C 92.429688 71.792969 92.589844 71.742188 92.746094 71.671875 C 93.1875 71.464844 93.523438 71.101562 93.691406 70.640625 C 93.859375 70.183594 93.839844 69.6875 93.632812 69.242188 L 93.011719 67.90625 " fill-opacity="1" fill-rule="nonzero"/><path fill="#7f5283" d="M 73.144531 70.667969 C 73.742188 71.480469 74.890625 71.652344 75.699219 71.054688 C 75.847656 70.941406 76.011719 70.847656 76.183594 70.769531 C 77.558594 70.128906 79.199219 70.730469 79.839844 72.105469 L 80.683594 73.917969 C 80.976562 74.550781 81.601562 74.953125 82.28125 74.976562 C 82.394531 74.980469 82.511719 74.972656 82.628906 74.953125 C 82.796875 74.925781 82.957031 74.878906 83.113281 74.808594 C 84.027344 74.382812 84.425781 73.292969 84 72.378906 L 83.160156 70.566406 C 81.667969 67.363281 77.851562 65.964844 74.640625 67.453125 C 74.25 67.636719 73.875 67.859375 73.527344 68.113281 C 73.132812 68.402344 72.878906 68.828125 72.804688 69.3125 C 72.730469 69.796875 72.851562 70.277344 73.144531 70.667969 " fill-opacity="1" fill-rule="nonzero"/></svg>